<?xml version="1.0" ?><svg fill="none" height="128" viewBox="0 0 128 128" width="128" xmlns="http://www.w3.org/2000/svg"><path clip-rule="evenodd" d="M35 99C35 103.418 38.5817 107 43 107H91C95.4183 107 99 103.418 99 99V35C99 30.5817 95.4183 27 91 27L43 27C38.5817 27 35 30.5817 35 35L35 99ZM47 36C45.3431 36 44 37.3432 44 39V47C44 48.6569 45.3431 50 47 50H87C88.6569 50 90 48.6569 90 47V39C90 37.3432 88.6569 36 87 36H47Z" fill="#FF9B6F" fill-rule="evenodd"/><rect height="66" rx="9" stroke="black" stroke-width="2" transform="rotate(-90 31 105)" width="82" x="31" y="105"/><rect height="16" rx="4" stroke="black" stroke-width="2" width="48" x="40" y="32"/><rect height="8" rx="2" stroke="black" stroke-width="2" width="12" x="40" y="84"/><rect height="8" rx="2" stroke="black" stroke-width="2" width="12" x="58" y="84"/><rect height="8" rx="2" stroke="black" stroke-width="2" width="12" x="76" y="84"/><rect height="8" rx="2" stroke="black" stroke-width="2" width="12" x="40" y="70"/><rect height="8" rx="2" stroke="black" stroke-width="2" width="12" x="58" y="70"/><rect height="8" rx="2" stroke="black" stroke-width="2" width="12" x="76" y="70"/><rect height="8" rx="2" stroke="black" stroke-width="2" width="12" x="40" y="56"/><rect height="8" rx="2" stroke="black" stroke-width="2" width="12" x="58" y="56"/><rect height="8" rx="2" stroke="black" stroke-width="2" width="12" x="76" y="56"/></svg>